<?xml version="1.0" standalone="no"?><!DOCTYPE svg PUBLIC "-//W3C//DTD SVG 1.1//EN" "http://www.w3.org/Graphics/SVG/1.1/DTD/svg11.dtd"><svg t="1499162591665" class="icon" style="" viewBox="0 0 1035 1024" version="1.1" xmlns="http://www.w3.org/2000/svg" p-id="594" xmlns:xlink="http://www.w3.org/1999/xlink" width="202.1484375" height="200"><defs><style type="text/css"></style></defs><path d="M755.516208 771.082219h-27.926145a561.625793 561.625793 0 0 0 37.307261-200.944124q0-121.478728-149.239385-112.15967a555.771646 555.771646 0 0 0-172.552543 32.714961v-32.714961l-167.898186 28.039918a2716.231263 2716.231263 0 0 0 41.982304 383.208759q153.893742-46.66769 438.378409-56.079835v-42.065048zM377.758218 322.453881v42.054705q158.496384-18.61743 368.428589-28.039918 79.248192-4.592299 83.954264 74.780009 9.308715 341.17474-27.988202 490.683043a1134.432387 1134.432387 0 0 0-139.909984-14.014787l-4.6647 42.054705a898.590926 898.590926 0 0 1 303.143469 88.794796q23.28213 14.02513 27.926144-9.308715 37.234859-196.26908 23.323502-542.087835-4.644014-182.254293-214.483132-172.945578-293.803725 9.412145-419.72995 28.039918z m-219.189204-42.065048q37.234859-70.094622 79.279221-135.493516h13.994101a1296.621227 1296.621227 0 0 1 55.966062 135.493516l167.887843-51.404792a331.783281 331.783281 0 0 1-13.994101-37.379661 429.235182 429.235182 0 0 0-37.307261-70.104966q51.280676-4.592299 97.938023-4.6647v-65.471294h-93.273322v28.039917q-41.961618 4.716415-107.267424 14.014788a488.759242 488.759242 0 0 1-55.955719 4.675043 323.664014 323.664014 0 0 1 41.971961-56.038463L125.926454 0Q32.58073 140.189245 0.000229 219.644297l139.909983 74.769666-83.943921 51.404792a1684.877379 1684.877379 0 0 1 144.574683 154.214375l149.239385-98.13454a1332.180518 1332.180518 0 0 0-144.574684-149.539332z m-102.602723 724.35247l195.876045-14.014787a1815.292473 1815.292473 0 0 1-27.988203-457.978425l-181.881944-9.308715Q27.988431 845.893257 55.966291 1004.782675z m881.431861-953.336511v32.714961q-83.933578 4.695729-23.313159 0-107.339825 9.422488-163.233486 18.68983a421.695123 421.695123 0 0 1 27.988203-42.054704 53.52511 53.52511 0 0 1 9.308715-14.025131L610.920838 0Q568.948877 70.094622 498.999057 214.969254l163.223142 60.754878a933.571007 933.571007 0 0 1 65.295463-126.1848 89.353319 89.353319 0 0 1 27.926145-4.664701 517.285281 517.285281 0 0 1 51.301361 102.809584 37.234859 37.234859 0 0 1 4.664701 14.014787l172.552543-37.379661a452.81726 452.81726 0 0 0-37.30726-65.429922c-9.308715-15.514525-15.586926-26.43675-18.61743-32.714961h51.301362a506.125167 506.125167 0 0 1 55.955719-4.675044V51.36342H937.35678zM601.622466 528.073048a346.491051 346.491051 0 0 1-4.6647 56.079835 126.991556 126.991556 0 0 0-4.664701 28.039917 624.097612 624.097612 0 0 0-139.909983 14.025131 846.55521 846.55521 0 0 1-4.664701-93.46984c12.41162-3.102905 32.64256-9.308715 60.62042-18.689831q37.234859-9.308715 55.966062-14.02513 32.580502-9.308715 37.317603 28.039918z m-88.618965 261.678316a80.603127 80.603127 0 0 0-32.64256 4.675043 631.958305 631.958305 0 0 1-23.313159-126.184801 194.159105 194.159105 0 0 0 32.64256-4.675043 662.408145 662.408145 0 0 1 93.273322-9.308715c-3.102905 9.308715-7.798634 24.968042-13.994101 46.729748a320.695568 320.695568 0 0 1-27.977859 84.119753 129.711769 129.711769 0 0 0-27.988203 4.664701z" fill="#3C3C3C" p-id="595"></path></svg>